<?xml version="1.0" encoding="utf-8"?><!-- Uploaded to: SVG Repo, www.svgrepo.com, Generator: SVG Repo Mixer Tools -->
<svg version="1.1" id="designs" xmlns="http://www.w3.org/2000/svg" xmlns:xlink="http://www.w3.org/1999/xlink" 
	 width="800px" height="800px" viewBox="0 0 32 32" xml:space="preserve">
<style type="text/css">
	.sketchy_een{fill:#111918;}
</style>
<path class="sketchy_een" d="M29.979,22.191c-0.01-0.432-0.018-0.863-0.031-1.295c-0.029-0.855-0.069-1.713-0.094-2.569
	c-0.053-1.756-0.049-3.512-0.061-5.269c-0.008-1.242-0.006-2.484,0.01-3.726c0.018-1.46,0.075-2.918,0.124-4.378
	c0.009-0.272-0.141-0.507-0.351-0.661c0.052-0.07,0.098-0.143,0.125-0.239c0.059-0.212,0.027-0.446-0.084-0.636
	c-0.108-0.184-0.286-0.322-0.492-0.379c-0.07-0.019-0.151-0.03-0.235-0.03c-0.145,0-0.296,0.033-0.401,0.113
	c-0.283,0.219-0.565,0.438-0.848,0.656c-0.768,0.595-1.52,1.211-2.284,1.811c-0.412,0.314-0.831,0.619-1.246,0.929
	c-0.469,0.35-0.924,0.717-1.385,1.079c-0.389,0.299-0.786,0.584-1.174,0.881c-0.251,0.19-0.497,0.386-0.745,0.58
	c-0.039-0.121-0.1-0.234-0.202-0.321c-0.569-0.489-1.142-0.969-1.705-1.462c-0.551-0.479-1.113-0.946-1.66-1.43
	c-0.563-0.5-1.071-1.06-1.609-1.586c-0.585-0.573-1.185-1.13-1.766-1.707c-0.167-0.166-0.389-0.25-0.611-0.25
	c-0.081,0-0.159,0.023-0.237,0.045c-0.008-0.002-0.014-0.009-0.021-0.011c-0.07-0.019-0.136-0.028-0.201-0.028
	c-0.144,0-0.279,0.044-0.421,0.109c-0.027,0.014-0.057,0.025-0.086,0.039c-0.703,0.288-1.418,0.543-2.114,0.852
	C9.41,3.648,8.662,4.021,7.911,4.384C7.11,4.772,6.302,5.149,5.503,5.545C4.736,5.928,3.953,6.271,3.19,6.662
	C3.017,6.75,2.846,6.842,2.675,6.935C2.454,7.052,2.315,7.263,2.26,7.495c-0.107,0.14-0.182,0.306-0.184,0.493
	c-0.022,1.768,0.016,3.532,0.071,5.3c0.027,0.858,0.031,1.717,0.049,2.577c0.02,0.844,0.037,1.688,0.043,2.533
	c0.01,1.427,0.031,2.851,0.031,4.278c0,0.708-0.006,1.417-0.033,2.123c-0.027,0.712-0.124,1.425-0.184,2.135
	c-0.011,0.126,0.02,0.243,0.072,0.351C2.051,27.422,2,27.574,2,27.712c0,0.231,0.094,0.457,0.257,0.62
	c0.165,0.165,0.388,0.257,0.62,0.257c0.253,0,0.434-0.102,0.622-0.257c0.24-0.195,0.483-0.388,0.726-0.581
	c0.729-0.528,1.475-1.023,2.251-1.482c0.738-0.434,1.472-0.865,2.17-1.362c0.345-0.243,0.681-0.5,1.032-0.734
	c0.334-0.222,0.675-0.43,1.015-0.642c0.585-0.364,1.147-0.761,1.711-1.155c0.017,0.013,0.035,0.027,0.052,0.04
	c0.661,0.547,1.282,1.14,1.938,1.695c0.681,0.577,1.364,1.148,2.027,1.746c0.648,0.583,1.272,1.187,1.892,1.799
	c0.597,0.591,1.232,1.142,1.784,1.78c0.277,0.318,0.769,0.314,1.109,0.096c0.123,0.063,0.255,0.107,0.395,0.107
	c0.253,0,0.432-0.104,0.622-0.257c0.528-0.426,1.062-0.846,1.58-1.283c0.473-0.4,0.944-0.802,1.429-1.185
	c1.341-1.001,2.763-1.88,4.181-2.765c0.121-0.075,0.21-0.179,0.282-0.293c0.123-0.106,0.225-0.234,0.257-0.4
	C30.033,23.041,29.988,22.611,29.979,22.191z M24.61,25.294c-0.628,0.443-1.224,0.926-1.821,1.413
	c-0.25,0.203-0.505,0.401-0.758,0.602c-0.023-0.499-0.045-0.998-0.069-1.497c-0.024-0.5-0.4-0.92-0.918-0.92
	c-0.481,0-0.946,0.42-0.92,0.92c0.023,0.409,0.056,0.818,0.084,1.226c-0.221-0.204-0.443-0.407-0.663-0.613
	c-0.312-0.296-0.61-0.608-0.926-0.899c-0.343-0.314-0.687-0.626-1.032-0.936c-0.661-0.589-1.366-1.126-2.043-1.697
	c-0.675-0.571-1.291-1.213-1.984-1.762c-0.136-0.107-0.271-0.213-0.405-0.319c-0.046-0.073-0.105-0.137-0.171-0.194
	c0.016-0.064,0.04-0.124,0.043-0.191c0.028-0.622,0.043-1.244,0.059-1.868c0.01-0.494-0.422-0.908-0.911-0.908
	c-0.5,0-0.901,0.414-0.909,0.908c-0.008,0.624-0.014,1.246-0.018,1.868c-0.001,0.169,0.062,0.32,0.147,0.456
	c-0.166,0.115-0.332,0.228-0.498,0.344c-0.349,0.247-0.71,0.471-1.073,0.697c-0.337,0.21-0.679,0.418-1.003,0.648
	c-0.343,0.243-0.675,0.502-1.013,0.752c-1.289,0.947-2.683,1.732-4.008,2.621c0.038-0.501,0.079-1.002,0.085-1.505
	c0.008-0.82,0.014-1.641,0.008-2.459c-0.006-0.863-0.024-1.725-0.027-2.586c-0.004-0.865-0.012-1.731-0.033-2.596
	c-0.018-0.701-0.051-1.399-0.065-2.1c-0.014-0.753-0.035-1.503-0.057-2.257C3.672,11.098,3.7,9.754,3.73,8.41
	c1.238-0.666,2.488-1.312,3.747-1.939c1.198-0.594,2.36-1.266,3.586-1.799c0.269-0.112,0.539-0.222,0.808-0.331
	c-0.005,0.672-0.009,1.344-0.031,2.017c-0.014,0.463,0.398,0.85,0.852,0.85c0.479,0,0.828-0.387,0.85-0.85
	c0.026-0.565,0.038-1.13,0.054-1.695c0.282,0.261,0.559,0.526,0.841,0.787c0.553,0.512,1.071,1.06,1.631,1.566
	c0.54,0.491,1.097,0.964,1.641,1.45c0.265,0.237,0.538,0.467,0.808,0.7c0.298,0.253,0.585,0.522,0.875,0.783
	c0.14,0.125,0.31,0.191,0.484,0.22c-0.004,0.131,0.017,0.258,0.072,0.377c0.027,0.676,0.061,1.35,0.11,2.022
	c0.018,0.229,0.081,0.428,0.247,0.594c0.157,0.157,0.371,0.245,0.593,0.245c0.434,0,0.873-0.383,0.84-0.84
	c-0.049-0.682-0.043-1.369-0.059-2.053c0.157-0.125,0.311-0.253,0.467-0.378c0.277-0.225,0.557-0.444,0.838-0.662
	c0.649-0.497,1.295-0.995,1.939-1.497c-0.014,0.011-0.028,0.023-0.042,0.034c1.087-0.838,2.145-1.709,3.228-2.552
	c0.043-0.033,0.087-0.066,0.13-0.098c-0.047,1.822-0.055,3.641-0.052,5.463c0.004,1.719-0.01,3.438-0.022,5.157
	c-0.004,0.632-0.012,1.264,0,1.894c0.014,0.636,0.035,1.27,0.057,1.903c0.035,1.016,0.058,2.039,0.022,3.056
	C27.011,23.624,25.805,24.449,24.61,25.294z M27.739,3.699c-0.034,0.026-0.067,0.053-0.1,0.08c-0.022,0.017-0.043,0.033-0.065,0.05
	C27.629,3.786,27.684,3.742,27.739,3.699z M13.156,9.351c-0.016,0.63-0.037,1.26-0.063,1.89c-0.02,0.465-0.375,0.854-0.856,0.854
	c-0.461,0-0.857-0.389-0.854-0.854c0.006-0.63,0.018-1.26,0.031-1.89c0.01-0.475,0.389-0.871,0.871-0.871
	C12.75,8.48,13.17,8.876,13.156,9.351z M12.948,14.424c0.01,0.208,0.016,0.414,0.024,0.622c0.018,0.493-0.424,0.905-0.905,0.905
	c-0.516,0-0.871-0.412-0.903-0.905c-0.014-0.208-0.026-0.414-0.035-0.622c-0.023-0.496,0.432-0.91,0.911-0.91
	C12.55,13.514,12.928,13.928,12.948,14.424z M19.984,17.623c-0.024-0.624-0.026-1.25-0.029-1.876
	c-0.002-0.481,0.404-0.883,0.883-0.883c0.485,0,0.883,0.402,0.885,0.883c0.002,0.626,0,1.25,0.012,1.876
	c0.008,0.477-0.404,0.875-0.875,0.875C20.369,18.498,20.002,18.1,19.984,17.623z M21.74,20.681c0.026,0.473,0.049,0.946,0.08,1.419
	c0.031,0.485-0.43,0.889-0.891,0.889c-0.235,0-0.465-0.094-0.63-0.261c-0.179-0.179-0.237-0.385-0.261-0.628
	c-0.045-0.473-0.073-0.946-0.1-1.419c-0.029-0.489,0.432-0.899,0.901-0.899C21.351,19.782,21.712,20.192,21.74,20.681z"/>
</svg>